<?xml version="1.0" encoding="utf-8"?><svg viewBox="0 0 18 18" xmlns="http://www.w3.org/2000/svg" xmlns:xlink="http://www.w3.org/1999/xlink"><style>:root>svg{display:none}:root>svg:target{display:block}</style><svg viewBox="0 0 18 18" id="mail" xmlns="http://www.w3.org/2000/svg"><path d="M15.803 2.15H2.2A2.203 2.203 0 000 4.353v9.296a2.203 2.203 0 002.201 2.201H15.8A2.203 2.203 0 0018 13.648V4.356a2.2 2.2 0 00-2.197-2.205zm1.195 11.498a1.197 1.197 0 01-1.195 1.196H2.2a1.197 1.197 0 01-1.195-1.196V4.356A1.197 1.197 0 012.2 3.16H15.8a1.197 1.197 0 011.195 1.196v9.292z"/><path d="M8.678 10.687a.501.501 0 00.67-.004l6.406-5.746a.504.504 0 00-.674-.749L9.01 9.637 2.915 4.184a.504.504 0 10-.67.753z"/></svg><svg viewBox="0 0 18 18" id="person" xmlns="http://www.w3.org/2000/svg"><path d="M8.935 9.699h.119a3.44 3.44 0 002.628-1.137c1.435-1.618 1.196-4.391 1.17-4.656a3.803 3.803 0 00-1.807-3.38A4.144 4.144 0 009.039 0h-.063A4.15 4.15 0 006.97.51a3.805 3.805 0 00-1.83 3.396c-.026.265-.264 3.038 1.17 4.656a3.426 3.426 0 002.625 1.137zm-2.8-5.7c0-.01.004-.022.004-.03.123-2.672 2.02-2.959 2.833-2.959h.045c1.006.023 2.717.433 2.833 2.96a.073.073 0 00.003.03c.004.026.265 2.56-.92 3.895a2.443 2.443 0 01-1.92.797h-.037a2.435 2.435 0 01-1.916-.797C5.878 6.568 6.132 4.022 6.135 4z"/><path d="M16.654 14.299v-.012c0-.03-.003-.06-.003-.093-.023-.738-.071-2.464-1.689-3.015l-.037-.011a10.755 10.755 0 01-3.094-1.41.503.503 0 10-.578.824 11.61 11.61 0 003.403 1.555c.869.309.966 1.237.992 2.087a.75.75 0 00.004.093 6.766 6.766 0 01-.079 1.152 13.718 13.718 0 01-6.571 1.528 13.797 13.797 0 01-6.575-1.532 6.405 6.405 0 01-.079-1.152c0-.03.004-.06.004-.093.026-.85.123-1.778.992-2.087a11.718 11.718 0 003.403-1.554.503.503 0 10-.578-.824 10.638 10.638 0 01-3.094 1.409.469.469 0 00-.037.011c-1.618.555-1.666 2.281-1.689 3.016a.75.75 0 01-.003.093v.01a5.716 5.716 0 00.19 1.69.478.478 0 00.194.234A14.099 14.099 0 009.006 18a14.142 14.142 0 007.276-1.782.499.499 0 00.193-.235 5.997 5.997 0 00.18-1.684z"/></svg><svg viewBox="0 0 18 18" id="place" xmlns="http://www.w3.org/2000/svg"><path d="M8.996 0a7.225 7.225 0 00-7.215 7.215A7.102 7.102 0 001.91 8.57c.004.026.02.105.05.241a7.106 7.106 0 00.482 1.423 20.226 20.226 0 006.238 7.653.511.511 0 00.642 0 20.264 20.264 0 006.237-7.653 7.026 7.026 0 00.483-1.423c.03-.135.046-.215.05-.241a7.42 7.42 0 00.128-1.355A7.236 7.236 0 008.996 0zm6.083 8.392c0 .008-.004.016-.004.023a9.28 9.28 0 01-.034.162v.008a5.99 5.99 0 01-.418 1.23l-.008.015a18.876 18.876 0 01-5.619 7.004A18.876 18.876 0 013.377 9.83l-.007-.015a6.391 6.391 0 01-.42-1.23v-.008c-.022-.086-.03-.143-.033-.162 0-.007-.004-.015-.004-.026a6.196 6.196 0 1112.166.003z"/><path d="M8.996 3.794a3.5 3.5 0 103.5 3.5 3.505 3.505 0 00-3.5-3.5zm0 6.222a2.722 2.722 0 112.722-2.722 2.725 2.725 0 01-2.722 2.722z"/></svg><svg viewBox="0 0 18 18" id="share" xmlns="http://www.w3.org/2000/svg"><path d="M14.262 11.564a3.221 3.221 0 00-2.549 1.256L6.77 10.058a3.229 3.229 0 00.18-1.062 3.158 3.158 0 00-.184-1.065l4.941-2.758a3.215 3.215 0 10-.665-1.955 3.142 3.142 0 00.183 1.065L6.287 7.042a3.215 3.215 0 10.007 3.905l4.941 2.762a3.216 3.216 0 103.027-2.145zm0-10.551a2.209 2.209 0 11-2.208 2.209 2.21 2.21 0 012.208-2.21zM3.738 11.205a2.209 2.209 0 112.208-2.209 2.21 2.21 0 01-2.208 2.21zm10.524 5.782a2.209 2.209 0 112.21-2.209 2.21 2.21 0 01-2.21 2.21z"/></svg><svg viewBox="0 0 18 18" id="tel" xmlns="http://www.w3.org/2000/svg"><path d="M14.226 11.15a1.77 1.77 0 00-1.284-.588 1.83 1.83 0 00-1.3.585l-1.2 1.196c-.099-.053-.198-.102-.293-.152a4.838 4.838 0 01-.376-.201 13.048 13.048 0 01-3.126-2.85A7.697 7.697 0 015.62 7.523c.311-.285.6-.581.881-.866.107-.106.213-.216.32-.323a1.743 1.743 0 000-2.629L5.783 2.667c-.118-.118-.24-.24-.353-.36a17.94 17.94 0 00-.714-.707 1.798 1.798 0 00-1.273-.559 1.86 1.86 0 00-1.292.559l-.007.007L.853 2.91A2.78 2.78 0 00.03 4.677a6.66 6.66 0 00.486 2.819 16.357 16.357 0 002.906 4.847 17.878 17.878 0 005.953 4.662 9.275 9.275 0 003.343.987c.08.004.164.008.24.008a2.863 2.863 0 002.192-.942c.004-.008.011-.012.015-.02a8.636 8.636 0 01.665-.687c.163-.156.33-.319.494-.49a1.895 1.895 0 00.573-1.314 1.826 1.826 0 00-.585-1.303zm1.36 4c-.148.16-.3.305-.464.464a9.989 9.989 0 00-.733.76 1.831 1.831 0 01-1.428.604c-.057 0-.118 0-.175-.004a8.24 8.24 0 01-2.963-.889 16.875 16.875 0 01-5.608-4.391A15.423 15.423 0 011.48 7.139a5.424 5.424 0 01-.426-2.379 1.744 1.744 0 01.525-1.128l1.295-1.295a.864.864 0 01.578-.27.813.813 0 01.554.266l.012.011c.231.217.452.44.684.68.117.122.239.243.36.369L6.1 4.43a.725.725 0 010 1.178c-.11.11-.217.22-.327.326-.32.327-.623.63-.954.927-.007.008-.015.012-.019.02a.775.775 0 00-.197.862l.011.034a8.326 8.326 0 001.227 2.002l.004.004a13.944 13.944 0 003.374 3.07 5.186 5.186 0 00.467.254c.137.068.266.133.376.201.015.008.03.02.046.027a.824.824 0 00.376.095.812.812 0 00.577-.262l1.3-1.3a.86.86 0 01.573-.285.774.774 0 01.547.278l.008.007 2.093 2.094a.751.751 0 01.004 1.189zM9.907 4.414a4.507 4.507 0 013.67 3.67.47.47 0 00.465.392.625.625 0 00.08-.007.473.473 0 00.39-.546 5.45 5.45 0 00-4.44-4.44.475.475 0 00-.547.385.468.468 0 00.382.546zM17.98 7.94A9.735 9.735 0 0010.046.008a.512.512 0 10-.167 1.01 8.695 8.695 0 017.089 7.09.51.51 0 00.505.425.678.678 0 00.087-.008.503.503 0 00.418-.585z"/></svg><svg viewBox="0 0 18 18" id="upload" xmlns="http://www.w3.org/2000/svg"><path d="M17.484 8.792a.514.514 0 00-.515.516v4.69a2.314 2.314 0 01-2.312 2.312H3.343a2.314 2.314 0 01-2.312-2.311V9.23a.516.516 0 00-1.031 0V14a3.346 3.346 0 003.343 3.342h11.314A3.346 3.346 0 0018 13.999V9.308a.516.516 0 00-.516-.516z"/><path d="M6.085 4.819l2.4-2.399v10.463a.516.516 0 101.03 0V2.42l2.4 2.399a.519.519 0 00.363.153.497.497 0 00.362-.153.514.514 0 000-.73L9.363.812A.522.522 0 009 .659a.5.5 0 00-.363.153L5.36 4.089a.515.515 0 00.725.73z"/></svg></svg>