<?xml version="1.0" encoding="utf-8"?><svg viewBox="0 0 18 18" xmlns="http://www.w3.org/2000/svg" xmlns:xlink="http://www.w3.org/1999/xlink"><style>:root>svg{display:none}:root>svg:target{display:block}</style><svg viewBox="0 0 18 18" id="mail" xmlns="http://www.w3.org/2000/svg"><path d="M17.991 2.57a.147.147 0 00-.008-.06.151.151 0 00-.035-.044.066.066 0 00-.017-.034.186.186 0 01-.043-.035c-.018-.009-.026-.017-.035-.017a.052.052 0 00-.035-.009.16.16 0 00-.06-.017H.242a.22.22 0 00-.06.017.052.052 0 00-.035.009c-.009 0-.017.008-.026.017a.182.182 0 00-.052.035.066.066 0 00-.017.034.152.152 0 00-.035.044.147.147 0 00-.008.06c0 .009-.009.018-.009.035v12.799a.248.248 0 00.242.242h17.516a.248.248 0 00.242-.242v-12.8c0-.016-.009-.025-.009-.034zm-.865.277L9 10.36.874 2.847zm.38 12.306H.494V3.159l8.343 7.71a.23.23 0 00.328 0l8.343-7.71z"/></svg><svg viewBox="0 0 18 18" id="person" xmlns="http://www.w3.org/2000/svg"><path d="M10.461 8.532a4.424 4.424 0 10-3.04.03 5.678 5.678 0 00-4.092 5.443v3.745a.25.25 0 00.25.25H14.42a.25.25 0 00.25-.25v-3.745a5.676 5.676 0 00-4.21-5.473zM4.976 4.416a3.918 3.918 0 113.917 3.918 3.922 3.922 0 01-3.917-3.918zm9.196 13.085H3.828v-3.496a5.172 5.172 0 1110.344 0z"/></svg><svg viewBox="0 0 18 18" id="place" xmlns="http://www.w3.org/2000/svg"><path d="M4.38 2.607a5.604 5.604 0 00-.314 5.243l4.67 9.982a.291.291 0 00.528 0l4.671-9.985a5.603 5.603 0 00-.314-5.24 5.312 5.312 0 00-4.322-2.6 5.99 5.99 0 00-.599 0 5.312 5.312 0 00-4.32 2.6zM8.73.589Q8.863.583 9 .583c.09 0 .18.002.27.006a4.737 4.737 0 013.853 2.32 5.02 5.02 0 01.283 4.694L9 17.02 4.595 7.605a5.02 5.02 0 01.282-4.696A4.737 4.737 0 018.73.59z"/><path d="M9 8.47a3.005 3.005 0 10-3.005-3.004A3.008 3.008 0 009 8.47zm0-5.426a2.422 2.422 0 11-2.422 2.422A2.425 2.425 0 019 3.044z"/></svg><svg viewBox="0 0 18 18" id="tel" xmlns="http://www.w3.org/2000/svg"><path d="M17.895 13.448a.288.288 0 000-.407l-3.76-3.716a.288.288 0 00-.406.001l-1.602 1.602-5.11-5.11 1.665-1.666a.288.288 0 000-.407L5.021.085a.288.288 0 00-.407 0L.104 4.593a.288.288 0 000 .406L13.02 17.915a.289.289 0 00.408 0zm-3.961-3.513l3.35 3.311-.682.682-3.33-3.33zM4.817.695l3.255 3.254-.75.75-3.255-3.255zM3.661 1.85l3.254 3.254-.508.509a.288.288 0 000 .407l5.517 5.517a.288.288 0 00.407 0l.534-.534 3.33 3.33-2.971 2.972L.715 4.796z"/></svg></svg>