<svg xmlns="http://www.w3.org/2000/svg" viewBox="0 0 150 150" fill="#1c79b7"><path d="M133.89786,63.27183h-31.4513a2.15538,2.15538,0,0,0-2.15533,2.1554V79.90062H74.32535A2.15538,2.15538,0,0,0,72.17,82.056V95.80516H66.96823a7.29782,7.29782,0,0,0,.74011-2.68561l1.48078-19.614a17.76683,17.76683,0,0,0-9.46-17.51245l.67462-6.64936,2.00451,1.76746A7.38,7.38,0,0,0,69.68918,52.551l11.5614-4.02625a6.42733,6.42733,0,0,0-3.91412-12.23608l-8.531,2.48083-4.21374-6.15142a9.734,9.734,0,0,0-4.36036-3.52192L48.1246,24.13884a9.82844,9.82844,0,0,0-8.68835.63366L26.67,32.3314a7.3606,7.3606,0,0,0-2.78045,2.93994L18.029,46.54179a6.311,6.311,0,0,0,11.08515,6.0351l4.27838-7.51154,3.36889-1.48505L32.5563,78.1569,18.792,97.0919A7.24853,7.24853,0,0,0,24.506,108.77836,7.32823,7.32823,0,0,0,30.06253,106.22L46.19766,86.26329A8.1365,8.1365,0,0,0,48.088,82.056l1.11432-8.52887a2.61956,2.61956,0,0,1,5.20093.62506L53.11,91.82634q-.0087.08642-.01538.173a7.28284,7.28284,0,0,0,.74444,3.80585H43.2728a2.15533,2.15533,0,0,0-2.15534,2.15539v11.58081H16.10214a2.15538,2.15538,0,0,0-2.15539,2.1554v36.14789A2.15532,2.15532,0,0,0,16.10214,150H133.89786a2.15536,2.15536,0,0,0,2.15539-2.15533V65.42723A2.15542,2.15542,0,0,0,133.89786,63.27183Zm-80.9043,3.79779q-.13349-.02334-.26782-.04156a6.9274,6.9274,0,0,0-7.79328,5.93652L43.816,81.49345a3.81732,3.81732,0,0,1-.89874,1.98725l-.04743.056L26.76047,103.46538a2.95724,2.95724,0,0,1-4.00257.43109,2.91178,2.91178,0,0,1-1.1466-1.96143,2.97221,2.97221,0,0,1,.61639-2.261L36.3605,80.23686a2.14181,2.14181,0,0,0,.39661-1.00873l4.74182-38.89166a2.15508,2.15508,0,0,0-2.14026-2.41614v-.00006a2.15481,2.15481,0,0,0-.86.18756l-7.4878,3.302a2.15555,2.15555,0,0,0-1.00445.90528L25.37674,50.443A2.00234,2.00234,0,0,1,21.8613,48.5291l5.86047-11.26838a3.04979,3.04979,0,0,1,1.15314-1.21991L41.63474,28.469a5.479,5.479,0,0,1,4.85607-.35566l12.10675,4.9574a5.45332,5.45332,0,0,1,2.43775,1.96784l5.09527,7.44037a2.15552,2.15552,0,0,0,2.371.85137l10.044-2.91839a2.11658,2.11658,0,0,1,1.29328,4.02838L68.27737,48.46654a3.06488,3.06488,0,0,1-3.01751-.597l-5.14923-4.54571a2.15537,2.15537,0,0,0-3.57148,1.39666L55.28476,57.08159a2.15538,2.15538,0,0,0,1.36865,2.2287l.27155.11206a13.456,13.456,0,0,1,7.97491,13.71252L63.41916,92.74882q-.00321.0348-.00726.0694a3.0188,3.0188,0,0,1-6.00409-.632L58.701,74.51219A6.96841,6.96841,0,0,0,52.99356,67.06962Zm78.749,78.61963H18.25748V113.85216H43.2728a2.15538,2.15538,0,0,0,2.15539-2.1554V100.116H74.32535a2.15542,2.15542,0,0,0,2.15539-2.1554V84.21135h25.96582A2.15534,2.15534,0,0,0,104.602,82.056V67.58262h27.14056Z" /><path d="M58.729,26.75114c.27808,0,.55829-.0086.83844-.02588a13.375,13.375,0,1,0-.83844.02588ZM58.17294,4.33519q.06831-.00477.13666-.00849a8.9965,8.9965,0,0,1,9.47418,8.49207l.00013.00152a9.06553,9.06553,0,1,1-9.611-8.4851Z" /></svg>