<svg xmlns="http://www.w3.org/2000/svg" viewBox="0 0 200 200">
	<path d="M0,33.33262H200V166.66738H0Z" fill="#f0f0f0"/>
	<path d="M0,49.99785H200V66.66309H0ZM0,83.33261H200V99.99785H0Zm0,33.33047H200v16.66523H0Zm0,33.33477H200v16.66523H0Z" fill="#d80027"/>
	<path d="M0,33.33262H100v71.7957H0Z" fill="#2e52b2"/>
	<path d="M38.993,62.744l-1.61055,4.95468H32.17305l4.21523,3.06055-1.61055,4.9543L38.993,72.65293l4.2125,3.06055-1.61016-4.9543,4.21524-3.06055H40.60078Zm1.60781,22.83437L38.993,80.624l-1.61055,4.9543H32.17305l4.21523,3.06094-1.61055,4.95429L38.993,90.53262l4.2125,3.06093-1.61016-4.95429,4.21524-3.06094Zm-22.016,0-1.6082-4.9543L15.366,85.57832H10.15664l4.21523,3.06094-1.61054,4.95429,4.21523-3.06093,4.21289,3.06093L19.5793,88.63926l4.21445-3.06094ZM16.97656,62.744,15.366,67.69863H10.15664l4.21523,3.06055-1.61054,4.9543,4.21523-3.06055,4.21289,3.06055-1.61015-4.9543,4.21445-3.06055h-5.209ZM38.993,44.86348l-1.61055,4.95507H32.17305l4.21523,3.06094-1.61055,4.9543L38.993,54.77285l4.2125,3.06094-1.61016-4.9543,4.21524-3.06094H40.60078Zm-22.01641,0L15.366,49.81855H10.15664l4.21523,3.06094-1.61054,4.9543,4.21523-3.06094,4.21289,3.06094-1.61015-4.9543,4.21445-3.06094h-5.209ZM61.009,62.744l-1.61015,4.95468H54.18946l4.21484,3.06055-1.60977,4.9543L61.009,72.65293l4.21328,3.06055-1.61054-4.9543L67.827,67.69863H62.61758Zm1.6086,22.83437L61.009,80.624l-1.61015,4.9543H54.18946l4.21484,3.06094-1.60977,4.95429L61.009,90.53262l4.21328,3.06093-1.61054-4.95429L67.827,85.57832Zm22.0164,0-1.6082-4.9543-1.61055,4.9543h-5.209l4.21446,3.06094-1.61016,4.95429,4.21524-3.06093,4.21289,3.06093-1.61055-4.95429,4.21524-3.06094ZM83.02578,62.744l-1.61055,4.95468h-5.209l4.21446,3.06055-1.61016,4.9543,4.21524-3.06055,4.21289,3.06055-1.61055-4.9543,4.21524-3.06055H84.634ZM61.009,44.86348l-1.61015,4.95507H54.18946l4.21484,3.06094-1.60977,4.9543L61.009,54.77285l4.21328,3.06094-1.61054-4.9543L67.827,49.81855H62.61758Zm22.0168,0-1.61055,4.95507h-5.209l4.21446,3.06094-1.61016,4.9543,4.21524-3.06094,4.21289,3.06094-1.61055-4.9543,4.21524-3.06094H84.634Z" fill="#f0f0f0"/>
</svg>
