<svg xmlns="http://www.w3.org/2000/svg" viewBox="0 0 150 150" fill="#1c79b7"><path d="M118.55631,62.14076h-1.95688a11.85424,11.85424,0,0,0,.14722-1.83548,11.69483,11.69483,0,0,0-4.10345-8.9643,11.61866,11.61866,0,0,0,.198-2.169,11.49909,11.49909,0,0,0-7.43008-10.916,11.10388,11.10388,0,0,0,.06886-1.25235A11.35064,11.35064,0,0,0,94.4865,25.3518a10.30915,10.30915,0,0,0-3.56334.64553,10.92238,10.92238,0,0,0-9.61844-5.784,8.75219,8.75219,0,0,0-6.3106,3.01922,8.748,8.748,0,0,0-6.42362-3.00633A10.8923,10.8923,0,0,0,59.051,26.01239a10.34625,10.34625,0,0,0-3.56765-.64554A11.29256,11.29256,0,0,0,44.50931,36.92406a10.99319,10.99319,0,0,0,.08177,1.33411A11.43883,11.43883,0,0,0,37.13086,49.187a11.27789,11.27789,0,0,0,.21518,2.16684A11.61966,11.61966,0,0,0,33.25766,60.245a11.759,11.759,0,0,0,.14837,1.89573H31.44372l-.026.00017a2.15177,2.15177,0,0,0-2.1258,2.17743,45.77477,45.77477,0,0,0,10.7137,28.9199,51.37167,51.37167,0,0,1,10.931,20.384v12.94491a15.52982,15.52982,0,0,0,11.52,14.98373l1.51768,4.45328A5.90661,5.90661,0,0,0,69.56893,150H80.4311a5.95613,5.95613,0,0,0,5.59032-3.98939l1.51965-4.45907a15.52985,15.52985,0,0,0,11.52227-14.98439V113.656a53.3383,53.3383,0,0,1,11.101-20.64585,45.77256,45.77256,0,0,0,10.54371-28.69182l.00016-.026A2.15178,2.15178,0,0,0,118.55631,62.14076ZM81.41876,24.51261a6.63609,6.63609,0,0,1,6.31332,5.0287,2.15177,2.15177,0,0,0,3.32449,1.2007,5.98413,5.98413,0,0,1,3.43209-1.0759,7.05137,7.05137,0,0,1,6.68988,7.34833A7.87335,7.87335,0,0,1,100.83,39.276a2.15179,2.15179,0,0,0,1.80533,2.72845,7.03416,7.03416,0,0,1,5.90449,7.17832,6.18665,6.18665,0,0,1-.37871,2.26369,2.15175,2.15175,0,0,0,.90158,2.62516,7.22994,7.22994,0,0,1,3.38259,6.24016,7.58645,7.58645,0,0,1-.23374,1.829H89.1a6.02157,6.02157,0,0,0-.30713-3.0749A7.0148,7.0148,0,0,0,85.038,55.44871a2.15533,2.15533,0,0,0-1.57293,4.01308,2.71552,2.71552,0,0,1,1.3427,1.21144,1.77559,1.77559,0,0,1-.207,1.46753h-7.449V29.14109A4.51871,4.51871,0,0,1,81.41876,24.51261ZM37.55907,60.23644a7.27729,7.27729,0,0,1,3.36752-6.16915,2.15176,2.15176,0,0,0,.9102-2.58213,6.619,6.619,0,0,1-.39376-2.2981,6.97389,6.97389,0,0,1,5.96257-7.174A2.15177,2.15177,0,0,0,49.198,39.13179a6.48752,6.48752,0,0,1-.37654-2.20773,6.99112,6.99112,0,0,1,6.6705-7.25364,5.982,5.982,0,0,1,3.42993,1.07589,2.15179,2.15179,0,0,0,3.3202-1.18993,6.621,6.621,0,0,1,6.39938-5.03946,4.50582,4.50582,0,0,1,4.20675,4.62417V62.14076H65.42006a1.77019,1.77019,0,0,1-.21065-1.47613,2.71561,2.71561,0,0,1,1.33842-1.2093,2.15237,2.15237,0,1,0-1.56865-4.00876,7.01478,7.01478,0,0,0-3.76346,3.61069,6.02172,6.02172,0,0,0-.30612,3.0835H37.80018A7.47994,7.47994,0,0,1,37.55907,60.23644ZM80.42034,145.6857H69.55816a1.62463,1.62463,0,0,1-1.50625-1.07589l-.86662-2.53481H82.80771l-.86176,2.50254A1.63751,1.63751,0,0,1,80.42034,145.6857Zm14.33944-19.11855a11.2172,11.2172,0,0,1-11.2043,11.2043h-17.111a11.21721,11.21721,0,0,1-11.20431-11.2043v-11.086H94.75978Zm12.08655-36.31341a59.08556,59.08556,0,0,0-11.60025,20.92388H54.75824A56.876,56.876,0,0,0,43.30432,90.46247a41.426,41.426,0,0,1-9.61846-24.01816h82.62829A41.467,41.467,0,0,1,106.84633,90.25374Z" /><path d="M61.17483,43.487a2.15178,2.15178,0,0,0,2.14532-1.93875c.1033-1.00274.4691-1.28676.58959-1.3793a2.70047,2.70047,0,0,1,1.77306-.33782,2.15178,2.15178,0,0,0,.74022-4.239A6.9867,6.9867,0,0,0,61.33191,36.724a6.00135,6.00135,0,0,0-2.29165,4.38531l-.00062.00607a2.15178,2.15178,0,0,0,1.92,2.36089A1.95768,1.95768,0,0,0,61.17483,43.487Z" /><path d="M52.32242,46.91047a5.97773,5.97773,0,0,0-4.622,1.77306,2.15178,2.15178,0,0,0,2.92,3.161c.74452-.68426,1.20929-.65845,1.35562-.64554a2.70483,2.70483,0,0,1,1.55358.921A2.1516,2.1516,0,0,0,56.8885,49.4302,6.99111,6.99111,0,0,0,52.32242,46.91047Z" /><path d="M84.31937,39.83543a2.69831,2.69831,0,0,1,1.77737.33567c.12049.08821.48629.37657.58957,1.37929a2.15179,2.15179,0,0,0,2.13886,1.9366,1.96027,1.96027,0,0,0,.22164,0l.00607-.00064A2.15177,2.15177,0,0,0,90.9662,41.12a6.0013,6.0013,0,0,0-2.2981-4.39393A7.02114,7.02114,0,0,0,83.577,35.59427a2.13885,2.13885,0,0,0-1.72141,2.47024A2.16684,2.16684,0,0,0,84.31937,39.83543Z" /><path d="M94.79636,52.91824a2.15177,2.15177,0,0,0,1.687-.81554A2.7415,2.7415,0,0,1,98.009,51.199a1.79921,1.79921,0,0,1,1.37068.64554,2.15178,2.15178,0,0,0,2.92-3.161,5.98832,5.98832,0,0,0-4.622-1.77306,6.99106,6.99106,0,0,0-4.56607,2.51973,2.15177,2.15177,0,0,0,1.68483,3.488Z" /><path d="M47.11941,16.1594l5.53438,3.6107A2.15124,2.15124,0,1,0,55.01,16.17016l-5.52361-3.61067a2.15418,2.15418,0,0,0-2.367,3.59991Z" /><path d="M64.95766,9.11234a2.15176,2.15176,0,0,0,2.042,1.474H67.004a2.15177,2.15177,0,0,0,2.03989-2.83173L66.95451,1.47568a2.154,2.154,0,1,0-4.08837,1.35776Z" /><path d="M83.00032,10.5863a2.15179,2.15179,0,0,0,2.04634-1.474l2.09152-6.2789A2.154,2.154,0,0,0,83.0498,1.47568L80.96043,7.75457a2.15174,2.15174,0,0,0,2.03989,2.83173Z" /><path d="M96.16921,20.123a2.13675,2.13675,0,0,0,1.18562-.35289l5.53436-3.62144a2.15418,2.15418,0,1,0-2.36694-3.59993L94.99,16.17016A2.15179,2.15179,0,0,0,96.16921,20.123Z" /></svg>