<svg xmlns="http://www.w3.org/2000/svg" viewBox="0 0 150 150" fill="#1c79b7"><path d="M134.68131,84.29759H117.956a6.48922,6.48922,0,0,0-6.38508,5.39927h-5.98734A50.31308,50.31308,0,0,0,92.405,78.55956l-1.11288-.61972C82.179,72.87939,73.574,68.09767,72.64985,56.83814a9.58912,9.58912,0,0,0-6.63221-8.49343l-.5232-.16082A9.43475,9.43475,0,0,0,53.315,55.721c-2.00489,12.65115.51248,22.49761,7.13182,28.54873h-3.002a2.14386,2.14386,0,0,0-.49184.05891c-.20333-.016-.40782-.02794-.61461-.031H32.51564A9.55069,9.55069,0,0,0,28.69817,102.538a9.55036,9.55036,0,0,0,3.0049,14.63474,9.54964,9.54964,0,0,0,3.76961,15.21538,9.54884,9.54884,0,0,0,7.65923,15.43978H61.49326c.03618-.00054.07178-.00334.10787-.00429h39.21151a31.09138,31.09138,0,0,0,9.36829-1.44309l1.728-.5457A6.48945,6.48945,0,0,0,117.956,150h16.72525a6.49284,6.49284,0,0,0,6.48641-6.48639V90.784A6.49282,6.49282,0,0,0,134.68131,84.29759ZM32.51564,88.58611H56.33843a5.262,5.262,0,0,1,0,10.52192H32.51564a5.262,5.262,0,0,1,0-10.52192Zm3.3708,14.81045H58.933q.10614-.00216.21229,0a5.262,5.262,0,0,1-.21229,10.52192H35.88644a5.262,5.262,0,0,1,0-10.52192Zm-2.22576,19.96525a5.262,5.262,0,0,1,5.36647-5.1548H58.933q.14327.00213.28653,0l.00048,0h1.22471q.10611-.00213.21227,0a5.262,5.262,0,0,1-.21227,10.52192H39.02778q-.10612.00216-.21227,0A5.262,5.262,0,0,1,33.66068,123.36181Zm9.25853,20.17753a5.262,5.262,0,0,1,.2127-10.5219h17.3128q.14325.00215.28651,0h.762a5.26063,5.26063,0,0,1,.06039,10.51762H50.313c-.0286,0-.05638.00316-.0847.00428H43.13191Q43.02558,143.54149,42.91921,143.53934Zm65.97516-1.2501a26.80358,26.80358,0,0,1-8.08173,1.24582H69.32224a9.5448,9.5448,0,0,0-2.34556-12.97136,9.54758,9.54758,0,0,0-1.19389-15.11029,9.54654,9.54654,0,0,0-2.40066-15.3203,9.54311,9.54311,0,0,0,.76461-11.57486h3.522a2.14427,2.14427,0,0,0,.85771-4.10627C56.60217,79.20711,55.96961,66.30292,57.54137,56.405a5.14614,5.14614,0,0,1,6.6708-4.117l.52963.16082a5.31989,5.31989,0,0,1,3.626,4.7474c1.1043,13.54745,11.58761,19.367,20.83154,24.50037l1.10431.6154a47.639,47.639,0,0,1,12.65115,10.9186,2.14429,2.14429,0,0,0,1.64036.76335h6.87668v47.48137Zm27.9848,1.22437a2.2,2.2,0,0,1-2.19786,2.19786H117.956a2.2,2.2,0,0,1-2.19573-2.19786V91.88348c.00029-.01422.00214-.02805.00214-.04235s-.00185-.02813-.00214-.04235V90.784a2.2,2.2,0,0,1,2.19573-2.19788h16.72525a2.2,2.2,0,0,1,2.19788,2.19788Z" /><path d="M37.44747,44.44214a2.14427,2.14427,0,0,0,3.11561-2.25149L38.749,31.613l7.685-7.49208A2.14427,2.14427,0,0,0,45.244,20.465L34.62347,18.92109l-4.7517-9.62347a2.23005,2.23005,0,0,0-3.84467,0l-4.74954,9.62347L10.657,20.465A2.14427,2.14427,0,0,0,9.4691,24.11021l7.685,7.49207-1.814,10.57765a2.14435,2.14435,0,0,0,2.1121,2.50666h0a2.17021,2.17021,0,0,0,.99494-.24445l9.4991-4.99614ZM20.29334,38.6226l1.28012-7.40629a2.14422,2.14422,0,0,0-.6154-1.89767L15.576,24.07376l7.43416-1.08071a2.14426,2.14426,0,0,0,1.61463-1.175l3.32576-6.73943,3.33,6.748a2.14425,2.14425,0,0,0,1.6125,1.17508l7.43631,1.07212-5.38,5.24488a2.14426,2.14426,0,0,0-.61754,1.89767l1.27155,7.40629-6.64723-3.49729a2.14414,2.14414,0,0,0-.99708-.24444h-.00857a2.144,2.144,0,0,0-1.01.24444Z" /><path d="M104.70233,31.60228l-1.81405,10.57765a2.14427,2.14427,0,0,0,3.11134,2.26221l9.49909-4.99614,9.50767,4.99614a2.17006,2.17006,0,0,0,.9942.24414,2.14267,2.14267,0,0,0,2.10854-2.50635l-1.814-10.57765,7.68719-7.48992a2.14428,2.14428,0,0,0-1.19008-3.65812l-10.62054-1.54388-4.74954-9.62344a2.23216,2.23216,0,0,0-3.84681,0l-4.74954,9.62344L98.20521,20.45424a2.14427,2.14427,0,0,0-1.19007,3.65812Zm5.856-8.60923a2.14426,2.14426,0,0,0,1.61464-1.175l3.32576-6.73729,3.32145,6.74585a2.14431,2.14431,0,0,0,1.61464,1.17508l7.43846,1.07212L122.489,29.31864a2.14429,2.14429,0,0,0-.61542,1.89767L123.143,38.6226l-6.64721-3.49729a2.19886,2.19886,0,0,0-1.99845-.00858l-6.64723,3.4973,1.26941-7.40629a2.14429,2.14429,0,0,0-.6154-1.89769l-5.3821-5.24486Z" /><polygon points="126.006 44.687 126.001 44.686 125.997 44.687 126.006 44.687" /><polygon points="71.717 26.692 71.722 26.692 71.728 26.692 71.717 26.692" /><path d="M60.92931,23.41332,59.11526,33.99314a2.14427,2.14427,0,0,0,3.11133,2.26l9.50124-4.994,9.49909,4.994a2.16158,2.16158,0,0,0,.99708.24445l.0043,0a2.14423,2.14423,0,0,0,2.11423-2.50448l-1.814-10.57982,7.685-7.49206a2.14426,2.14426,0,0,0-1.18792-3.656L78.40292,10.72142,73.64909,1.098a2.23219,2.23219,0,0,0-3.84468,0l-4.74953,9.62347L54.43219,12.26529a2.14427,2.14427,0,0,0-1.18794,3.65811Zm5.85812-8.60921a2.1443,2.1443,0,0,0,1.61464-1.17506l3.31074-6.72872,3.3236,6.73729a2.14425,2.14425,0,0,0,1.61464,1.17506l7.43845,1.07213-5.3821,5.24488a2.14428,2.14428,0,0,0-.6154,1.89767l1.26941,7.4063-6.64723-3.49731a2.18343,2.18343,0,0,0-1.98988-.00857l-6.64721,3.49729,1.27154-7.40629a2.1443,2.1443,0,0,0-.61755-1.89767L59.349,15.87624Z" /></svg>