<svg xmlns="http://www.w3.org/2000/svg" viewBox="0 0 150 150" fill="#1c79b7"><path d="M147.85713,134.64H17.895V13.21715a2.14286,2.14286,0,1,0-4.28571,0v123.5657a2.14287,2.14287,0,0,0,2.14287,2.14287h132.105a2.14286,2.14286,0,1,0,0-4.28571Z" /><path d="M6.01715,21.95144H2.14287a2.14286,2.14286,0,1,0,0,4.28571H6.01715a2.14286,2.14286,0,0,0,0-4.28571Z" /><path d="M6.01715,38.92072H2.14287a2.14286,2.14286,0,1,0,0,4.28571H6.01715a2.14286,2.14286,0,0,0,0-4.28571Z" /><path d="M6.01715,55.89H2.14287a2.14286,2.14286,0,1,0,0,4.28571H6.01715a2.14286,2.14286,0,0,0,0-4.28571Z" /><path d="M6.01715,72.85715H2.14287a2.14286,2.14286,0,1,0,0,4.28572H6.01715a2.14286,2.14286,0,0,0,0-4.28572Z" /><path d="M6.01715,89.82429H2.14287a2.14286,2.14286,0,1,0,0,4.28572H6.01715a2.14286,2.14286,0,0,0,0-4.28572Z" /><path d="M6.01715,106.79357H2.14287a2.14286,2.14286,0,1,0,0,4.28571H6.01715a2.14286,2.14286,0,0,0,0-4.28571Z" /><path d="M6.01715,123.76287H2.14287a2.14286,2.14286,0,1,0,0,4.28571H6.01715a2.14286,2.14286,0,0,0,0-4.28571Z" /><path d="M35.37,56.51144c2.33358.11357,4.87929.18428,7.60286.18428,21.60477,0,54.29292-4.4816,78.8636-27.57292l-1.21717,8.79077-.00027.0018a2.14288,2.14288,0,0,0,1.83027,2.41535,2.28435,2.28435,0,0,0,.2957.01929,2.14288,2.14288,0,0,0,2.12143-1.8493L126.945,23.47929a2.191,2.191,0,0,0-2.6565-2.45914L110.22,20.49858q-.04584-.00276-.09179-.00346A2.09789,2.09789,0,0,0,107.99784,22.56l0,.00087a2.14284,2.14284,0,0,0,2.06147,2.22125l9.74034.361C93.20171,50.87509,55.944,53.216,35.58428,52.22572A2.14554,2.14554,0,0,0,35.37,56.51144Z" /><path d="M26.60786,127.14215H138.93a2.14287,2.14287,0,1,0,0-4.28573h-5.70857V49.11857a2.14285,2.14285,0,0,0-2.14285-2.14285H115.99714a2.14286,2.14286,0,0,0-2.14287,2.14285v73.73785h-7.8107V61.92858a2.14286,2.14286,0,0,0-2.14285-2.14287H88.81929a2.14288,2.14288,0,0,0-2.14287,2.14287v60.92784H78.85714V67.92858a2.14286,2.14286,0,0,0-2.14285-2.14286h-15.075a2.14284,2.14284,0,0,0-2.14284,2.14286v54.92784H51.68572V75.04285A2.14286,2.14286,0,0,0,49.54287,72.9H34.46144a2.14286,2.14286,0,0,0-2.14287,2.14284v47.81357H26.60786a2.14287,2.14287,0,0,0,0,4.28573ZM118.14,51.26143h10.79571v71.595H118.14Zm-27.17787,12.81h10.79573v58.785H90.96213Zm-27.18,6H74.57143v52.785H63.77572ZM36.60428,77.18572H47.4v45.6707H36.60428Z" /></svg>