<svg xmlns="http://www.w3.org/2000/svg" viewBox="0 0 200 200">
	<defs>
		<style>
			.s1{fill:#cd1738;}.s2{fill:#239f40;}.s3{fill:#fff;}.s4{fill:#ff0;fill-rule:evenodd;}
		</style>
	</defs>
	<path class="s1" d="M0,35.25H200v39H0Z" />
	<path class="s2" d="M0,125.75H200v39H0Z" />
	<path class="s3" d="M0,73.94H200v52H0Z" />
	<polygon class="s4" points="79.696 97.908 81.553 96.434 83.466 97.908 82.698 95.605 84.631 94.157 82.3 94.209 81.581 91.839 80.908 94.173 78.531 94.157 80.446 95.548 79.696 97.908" />
	<polygon class="s4" points="80.381 105.761 82.315 104.313 79.984 104.365 79.265 101.995 78.591 104.33 76.215 104.313 78.13 105.704 77.38 108.064 79.236 106.59 81.149 108.064 80.381 105.761" />
	<polygon class="s4" points="87.536 89.623 89.392 88.149 91.305 89.623 90.537 87.32 92.47 85.872 90.14 85.924 89.42 83.554 88.747 85.889 86.371 85.872 88.286 87.263 87.536 89.623" />
	<polygon class="s4" points="98.092 86.861 99.948 85.387 101.861 86.861 101.093 84.559 103.027 83.11 100.696 83.163 99.977 80.792 99.303 83.127 96.927 83.11 98.842 84.502 98.092 86.861" />
	<polygon class="s4" points="108.739 89.623 110.596 88.149 112.509 89.623 111.741 87.32 113.674 85.872 111.344 85.924 110.624 83.554 109.951 85.889 107.574 85.872 109.489 87.263 108.739 89.623" />
	<polygon class="s4" points="116.579 97.953 118.435 96.479 120.348 97.953 119.58 95.65 121.513 94.201 119.183 94.254 118.464 91.884 117.79 94.218 115.414 94.201 117.329 95.593 116.579 97.953" />
	<polygon class="s4" points="123.785 104.313 121.455 104.365 120.735 101.995 120.062 104.33 117.685 104.313 119.6 105.704 118.851 108.064 120.707 106.59 122.62 108.064 121.852 105.761 123.785 104.313" />
	<path class="s4" d="M115.68777,111.363c-3.86022.09272-4.73107-2.74353-5.235-3.9953-1.36469,1.7981-2.14075,2.51368-4.40448,2.46936a5.12909,5.12909,0,0,1-4.90344-2.705V99.36334c1.67053-.37372,2.89691-1.527,2.89691-2.90857,0-1.683-1.80854-3.04742-4.03949-3.04742s-4.03949,1.36438-4.03949,3.04742c0,1.37543,1.21582,2.52441,2.87494,2.90344v7.75428a5.13961,5.13961,0,0,1-4.90644,2.70434c-2.26574.04236-3.03985-.67328-4.40454-2.47137-.504,1.25183-1.37475,4.08807-5.235,3.99536a4.11926,4.11926,0,0,1-4.461-2.85645c1.05023,3.0177,2.08838,4.7049,5.30963,4.80976a5.14635,5.14635,0,0,0,4.88837-2.81006c2.10046,1.11676,2.31817,1.36468,5.29748,1.29419a5.74185,5.74185,0,0,0,4.25189-2.43293h.8053a5.74162,5.74162,0,0,0,4.25183,2.43293c2.98139.07055,3.197-.17743,5.29956-1.29419a5.14042,5.14042,0,0,0,4.88629,2.81006c3.22126-.10486,4.26142-1.79206,5.42853-4.75934A4.31405,4.31405,0,0,1,115.68777,111.363ZM97.88461,96.46667v-.0025c-.00122-.661.94263-1.19745,2.1081-1.19812s2.11139.53455,2.11261,1.19562v.0025c.00122.661-.94263,1.19745-2.10816,1.19812S97.88583,97.12768,97.88461,96.46667Z" />
	<polygon class="s4" points="90.244 111.643 90.253 111.655 90.256 111.647 90.244 111.643" />
	<polygon class="s4" points="87.753 113.611 88.708 114.889 91.76 114.81 93.318 113.044 91.299 113.103 90.253 111.655 89.517 113.324 87.753 113.611" />
	<polygon class="s4" points="109.685 111.647 109.688 111.655 109.697 111.643 109.685 111.647" />
	<polygon class="s4" points="106.623 113.044 108.181 114.81 111.233 114.889 112.188 113.611 110.425 113.324 109.688 111.655 108.643 113.103 106.623 113.044" />
	<path class="s4" d="M102.5145,112.59869l-1.37275-.0202-1.13891-.91718-1.16516.92926s-1.38483-.01611-1.38483-.008l1.2276,1.84247h2.59839Z" />
	<path class="s4" d="M99.98471,115.09424a64.70333,64.70333,0,0,0-14.97546,1.657l.00811,2.3222a68.77786,68.77786,0,0,1,29.96692.0141l-.02618-2.3363A64.68566,64.68566,0,0,0,99.98471,115.09424Z" />
</svg>
