<svg xmlns="http://www.w3.org/2000/svg" viewBox="0 0 24 24"><path d="M0,3.6A3.6,3.6,0,0,1,3.6,0H20.4A3.6,3.6,0,0,1,24,3.6V20.4A3.59993,3.59993,0,0,1,20.4,24H3.6A3.6,3.6,0,0,1,0,20.4Z" fill="#56acee"/><path d="M19.19916,7.53468A5.95856,5.95856,0,0,1,17.5026,8a2.96951,2.96951,0,0,0,1.29876-1.6344,5.93174,5.93174,0,0,1-1.87656.7155,2.95561,2.95561,0,0,0-5.1102,2.0196,3.02479,3.02479,0,0,0,.0765.675,8.39593,8.39593,0,0,1-6.0894-3.0852,2.91836,2.91836,0,0,0-.3996,1.485,2.95314,2.95314,0,0,0,1.314,2.4588,2.95036,2.95036,0,0,1-1.3383-.369v.036a2.95669,2.95669,0,0,0,2.3697,2.898,2.99437,2.99437,0,0,1-1.3338.0504,2.95863,2.95863,0,0,0,2.7603,2.052,5.93248,5.93248,0,0,1-3.6693,1.2636A6.07325,6.07325,0,0,1,4.8,16.52484,8.40334,8.40334,0,0,0,17.7348,9.44718c0-.1287-.0036-.2556-.009-.3825a6.00333,6.00333,0,0,0,1.4742-1.53Z" fill="#ffffff"/></svg>