<svg xmlns="http://www.w3.org/2000/svg" viewBox="0 0 24 24"><path d="M0,3.6A3.6,3.6,0,0,1,3.6,0H20.4A3.6,3.6,0,0,1,24,3.6V20.4A3.59993,3.59993,0,0,1,20.4,24H3.6A3.6,3.6,0,0,1,0,20.4Z" fill="#2e77a3"/><path d="M11.80692,17.09161h1.07614a.90551.90551,0,0,0,.49029-.21476.7891.7891,0,0,0,.14814-.47252s-.02138-1.44393.64909-1.65622c.661-.21015,1.50808,1.39471,2.40793,2.01176a1.70252,1.70252,0,0,0,1.19682.365l2.403-.03327s1.25759-.07759.661-1.06668a8.02129,8.02129,0,0,0-1.78759-2.068c-1.5068-1.39841-1.3052-1.173.51077-3.59282C20.66866,8.8906,21.11034,7.991,20.97289,7.60551c-.13228-.36747-.94481-.26973-.94481-.26973l-2.70759.01681a.617.617,0,0,0-.34943.06078.75082.75082,0,0,0-.23856.29111A15.60791,15.60791,0,0,1,15.7324,9.814c-1.205,2.04782-1.68707,2.155-1.88406,2.02858-.45821-.29724-.34366-1.19069-.34366-1.82543,0-1.98339.30089-2.81026-.58588-3.02379a4.5822,4.5822,0,0,0-1.26248-.12521,5.82791,5.82791,0,0,0-2.24664.22907c-.30793.15029-.54526.48691-.4011.50587a1.21713,1.21713,0,0,1,.7997.40229,2.61438,2.61438,0,0,1,.2673,1.224s.15975,2.33524-.37236,2.62512c-.365.1995-.86507-.20768-1.9403-2.06427a17.29693,17.29693,0,0,1-.96524-2.002.80369.80369,0,0,0-.223-.30089,1.12309,1.12309,0,0,0-.41667-.168l-2.57134.0165s-.38643.01069-.52845.179c-.12525.14906-.00946.45818-.00946.45818s2.013,4.71081,4.29294,7.08425a6.17593,6.17593,0,0,0,4.46521,2.03438Zm0,0" fill="#ffffff"/></svg>